<svg id="Layer_1" data-name="Layer 1" xmlns="http://www.w3.org/2000/svg" xmlns:xlink="http://www.w3.org/1999/xlink" viewBox="0 0 1156.09 1053.36"><defs><style>.cls-1{fill:#fdfdfd;filter:url(#luminosity-invert-noclip);}.cls-2{mask:url(#mask);}.cls-3{fill:#00bc9b;}.cls-4{fill:#00bc9a;}.cls-5{fill:#01bc9a;}.cls-6{fill:#dfeded;stroke:#150100;}.cls-6,.cls-8,.cls-9{stroke-miterlimit:10;}.cls-7{fill:#01a185;}.cls-8,.cls-9{fill:#fff;stroke:#000;}.cls-9{stroke-width:3px;}</style><filter id="luminosity-invert-noclip" x="99.43" y="79.79" width="865.55" height="917.02" filterUnits="userSpaceOnUse" color-interpolation-filters="sRGB"><feColorMatrix values="-1 0 0 0 1 0 -1 0 0 1 0 0 -1 0 1 0 0 0 1 0" result="invert"/><feFlood flood-color="#fff" result="bg"/><feBlend in="invert" in2="bg"/></filter><mask id="mask" x="99.43" y="79.79" width="865.55" height="917.02" maskUnits="userSpaceOnUse"><path class="cls-1" d="M455.78,446.52l-.11,89.81.11,16S454.6,567.41,470.69,568s16.51-15.58,16.51-15.58l.1-1.93V450.52s1.92-19.28-15.81-19.53S455.78,446.52,455.78,446.52Z"/></mask></defs><g class="cls-2"><path class="cls-3" d="M624,659.83c-.78,2.68-2.69,4.93-4.31,7.27-24.42,35.27-55.81,62.92-92.94,84.1a278.74,278.74,0,0,1-109.29,35.11c-141.19,15.33-268.68-73.74-306.71-205.4C74.8,456.48,126.25,323.17,240.22,255.37a344.75,344.75,0,0,1,40.9-20.72,41.11,41.11,0,0,1,6.49-2.31c5.23-1.25,7.39.27,8.18,5.65a22.67,22.67,0,0,1,.09,5c-1.37,17.38-.7,34.78-.43,52.17,0,1.47,0,2.93.05,4.4.06,6-2.74,10.32-7.91,13.32-6,3.47-12,6.9-17.77,10.7C222.49,354.71,191.73,397.5,179,452.93c-15.7,68.35-.58,129.61,43,184,32.31,40.32,74.82,63.78,125.17,73.6,60.69,11.83,115.54-1.85,165.16-38.12,3.54-2.59,7.11-5.2,10.85-7.49a41.25,41.25,0,0,1,22.11-6.18q37.74.13,75.48.21C621.77,659,622.86,658.65,624,659.83Z"/><path class="cls-4" d="M798.65,212.41V92.91c0-11.34,1.4-12.58,12.6-12.56q66.06.08,132.11,0c12,0,13.76,1.77,12.88,14a227,227,0,0,0,.07,32.05c.75,10.86-1.27,12.88-12.24,12.8-17.82-.13-35.64-.11-53.47-.18-3.76,0-7.55-.42-11.29-.12-5.43.45-7.61,2.56-7.85,7.93a208.67,208.67,0,0,0,0,21.37c.39,6.59,3.22,9.2,9.67,10.45a61.59,61.59,0,0,0,11.89.92q23.28,0,46.56,0c8.86,0,11.24,2.47,10.55,11.42-.87,11.31-.6,22.62-.36,33.94,0,.63.06,1.26.06,1.89.06,9.1-2,11.26-11,11.22l-55.35-.3a38.33,38.33,0,0,0-5,.1c-4.64.58-7,2.7-7,7.33,0,8.39-.6,16.75-1,25.12a26.25,26.25,0,0,0,.93,7.45,10.37,10.37,0,0,0,7.93,8.05,23.78,23.78,0,0,0,10,.52c9.39-1.46,18.8-1.23,28.24-1.12,9.64.1,19.28.29,28.92-.44,7.57-.57,10.47,2.23,10.08,10q-1,19.81-.09,39.59c.37,8-1.92,10.17-9.84,10.24-5.87.06-11.74-.08-17.62-.07l-116.38.09c-1.47,0-2.94,0-4.4,0-7.21-.18-9.42-2.13-9.48-9.45-.15-17.19-.36-34.39,0-51.58C799.26,259.79,798.71,236.1,798.65,212.41Z"/><path class="cls-5" d="M572.51,212.58q0-56.28,0-112.56c0-4-.71-7.93,0-11.92,1-5.34,2.82-7.27,8.22-7.69,2.91-.23,5.86-.1,8.8-.1H714.08c2.3,0,4.62-.1,6.91.12,5.93.57,8.14,2.91,8.16,8.94,0,9.42-.19,18.85-.23,28.28,0,4,.33,8,.22,11.94-.17,5.94-2.83,8.73-8.74,9.48a32.11,32.11,0,0,1-4.39.12l-61-.59c-7.91-.07-10.18,2.08-10.62,9.78a109.51,109.51,0,0,0,.22,20.08c.8,6.35,3.08,8.82,9.25,10.15a47.94,47.94,0,0,0,10,.88q24.21,0,48.42,0a33.57,33.57,0,0,1,5,.23,6.07,6.07,0,0,1,5.58,5.84,38.22,38.22,0,0,1,.13,5c-.38,11.95-.34,23.89,0,35.84a37.8,37.8,0,0,1,0,4.39c-.44,4.85-2.14,6.77-7.12,7-5.64.27-11.31,0-17,0-14.67-.05-29.34-.13-44-.12-8.13,0-9.91,1.7-10.5,9.76s-1.08,15.89.06,23.83c1.24,8.66,4.61,11.9,13.48,12.85a197.41,197.41,0,0,0,21.34.94c13,0,26-.1,39-.15,1.26,0,2.52-.05,3.77,0,4.89.39,6.79,2.13,7,7.06s-.06,10.06-.06,15.09c0,9.22.13,18.44.07,27.66,0,7.06-2.37,9.53-9.41,9.59-12.79.12-25.58-.06-38.37,0q-47.79.06-95.59.19c-11.29,0-13.17-2-13.16-13.08q.08-59.43,0-118.85Z"/><path class="cls-6" d="M582.92,902.4c0-12.58-.08-25.16.06-37.74,0-4.08-.61-7.08-4.92-9-5.08-2.27-7.08-6.93-6.82-12.42a51.22,51.22,0,0,1,.9-8.12c.93-4.35,1.55-8.69.45-13.06-.84-3.34,1-4.68,3.72-5.29a19.89,19.89,0,0,1,4.37-.32q26.73,0,53.46,0c5.63,0,5.62.14,7.16,5.68a34.92,34.92,0,0,1,.85,10c-.08,6.06-1.18,12.06-.25,18.19.57,3.81-.91,5-5,5.67-5.63.92-5.75,1-5.78,6.7q-.15,34-.19,67.91a67.65,67.65,0,0,0,.74,8.75c1.87,14.26-1.46,27-10.85,38.06a80.69,80.69,0,0,1-10.94,10.37c-6.45,5.21-13.65,8-22.09,7.2-13.18-1.22-26.32-1.65-39.44,1a30.41,30.41,0,0,1-11.88-.46,45.69,45.69,0,0,1-19.16-9c-6.19-4.75-11.4-10.49-16.47-16.37a13.72,13.72,0,0,1-3.47-9.19c0-1-.05-2.1-.05-3.14q.06-47.17.14-94.33c0-5.83-.69-6.93-6.54-7.81-2.68-.4-4.27-1.08-4.31-4.1-.08-7.12-.51-14.24-.46-21.35.07-9.05,2.7-11.76,11.76-13.06a89.21,89.21,0,0,1,12.54-.71c12.37,0,24.74,0,37.11-.06,5.77,0,7.93,1.66,8.94,7.26a19,19,0,0,1,.23,4.39c-.39,6.66-1.19,13.3.1,20,.73,3.8-1.1,6.42-5,7.47-4.8,1.3-6.44,4.67-6.42,9.46.1,26,0,52,.12,78,0,8.12,3.21,11.65,11.11,12.45a70.1,70.1,0,0,0,18.18-.43c4.34-.7,6.66-3,7.36-7.3a53.74,53.74,0,0,0,.72-8.76Q582.92,920.63,582.92,902.4Z"/><path class="cls-7" d="M405.71,212.48q0,59.43,0,118.84c0,11.32-1.92,13.2-13,13.18q-23.26,0-46.53,0c-10.88,0-13.34-2.44-13.34-13.24q0-105.31,0-210.64c0-8.8-.07-17.61-.09-26.41a39.44,39.44,0,0,1,.22-5.65c.77-5.28,3.41-7.73,8.69-8.24a23.48,23.48,0,0,1,3.14-.07c16.34.72,32.69.38,49,.15a34.3,34.3,0,0,1,5.65.17c3.69.57,5.58,2.47,6.07,6.17A46.77,46.77,0,0,1,405.7,93Q405.72,152.76,405.71,212.48Z"/><path class="cls-6" d="M719.94,817.31c7.66.22,17.1.45,26.47-1,11.68-1.82,21.55,2,29.91,9.89,12.85,12.08,20.27,26.53,18.35,44.73a19.12,19.12,0,0,1-.35,2.49c-1.09,4.81-2.28,5.86-7.27,5.92-4.82.07-9.65-.19-14.46-.09-5.45.11-10.89.66-16.33.68-8.68,0-11.7-3.26-11.39-11.94.34-9.38-2.18-12-11.6-11.89-4.2.07-8.37,0-12.56-.23-7.65-.35-11.23,2.71-12.45,10.27a26.77,26.77,0,0,0-.25,6.26c.73,9.34,4.3,12.31,13.77,12.25,7.34,0,14.65-.32,22-.81,14.78-1,27,4.54,37,15.32a86.63,86.63,0,0,1,9.93,13c2.73,4.4,4.06,9.1,3.09,14.38a29.14,29.14,0,0,0,.33,10.6c2.47,13.67-.24,26.22-8.69,37.41a108.09,108.09,0,0,1-15.2,15.86,17.56,17.56,0,0,1-12.1,4.41c-7.13,0-14.26,0-21.39.12-8.36.13-16.68-.22-25.07,1-11.5,1.65-22-1.93-31.21-8.91-6.08-4.58-11.06-10.21-15.77-16.14-2.09-2.63-2.67-5.7-3.18-8.75a133.82,133.82,0,0,1-1.93-25c.12-6.55.39-6.94,7.24-7.42a248.82,248.82,0,0,1,29.54-.32c2.3.11,4.61.25,6.91.44,3.16.25,4.82,1.71,4.87,5.17a105.08,105.08,0,0,0,1,12.53c.69,5.19,2.46,6.79,7.65,7.52a61,61,0,0,0,18.79-.31c6.8-1.15,9.94-4.55,10.37-11.37a31.69,31.69,0,0,0-1.46-12.4c-1.46-4.23-4.3-6.55-8.85-6.68-8.16-.22-16.29-.83-24.44.69-8.31,1.55-16.29-.19-23.78-3.89-10.63-5.25-18.48-13.61-25.19-23.15a13.8,13.8,0,0,1-2.39-8.93,128.17,128.17,0,0,0-.81-22.57c-1.33-10.57,1.59-20.35,7.82-29.05a68.3,68.3,0,0,1,17.68-16.81,23.23,23.23,0,0,1,14.23-4.17C705.19,816.6,711.68,816.92,719.94,817.31Z"/><path class="cls-6" d="M411.32,994.86c-8.61-.84-17.17-.22-25.73.57A46.83,46.83,0,0,1,353,986.68a89,89,0,0,1-9.88-8.74,34.37,34.37,0,0,1-10.71-27.19c.23-5.65.21-11.31.33-17,.09-4,.42-4.56,4.18-4.51,10.49.11,21,.22,31.43-.5a18,18,0,0,1,4.37.4c5.36,1,7.5,3.22,8.49,8.62a21,21,0,0,1-.1,6.24c-.78,6.85,2,10.69,8.6,11.23a147.12,147.12,0,0,0,17.57.25c5.76-.24,8.6-3,10-8.67a28.66,28.66,0,0,0,0-14.31c-1.45-5.62-4.36-8.29-10.16-8.42-7.11-.16-14.32-.55-21.34.34-23.64,3-39.16-8.61-50.94-27.34a18.38,18.38,0,0,1-2.66-13.26,30.47,30.47,0,0,0-.14-10c-3.49-22.87,5.93-42.61,25.79-54.34a22.23,22.23,0,0,1,11.95-3.21c11.53.19,23.06.25,34.59.25a42,42,0,0,0,7.5-.7c11.3-2.07,21.61.39,31.14,6.59,7.48,4.87,13.42,11.34,19.06,18.13a12.19,12.19,0,0,1,2.32,5.77,119.06,119.06,0,0,1,2,26.91c-.22,5.24-1.39,6.26-6.45,6.26-11.11,0-22.21-.36-33.33.06-7.67.29-9.37-1.89-8.67-9.92a18.42,18.42,0,0,0-.55-7.45c-.92-2.88-2.74-5-5.61-5.34-6-.8-12-2.2-18.12-1.67-10.31.89-14.85,6.55-13.41,16.87.17,1.24.25,2.51.47,3.74,1.08,6,3.66,8.74,9.59,8.75,7.1,0,14.18.85,21.33-.26,17.2-2.68,31.28,3.41,42.61,16.29,2.49,2.83,4.81,5.81,7.06,8.84a24.09,24.09,0,0,1,4.95,17.7,53.9,53.9,0,0,0,.74,15.61c1.76,10.16-.73,19.56-6.48,28.08-5.58,8.24-12.91,14.85-20.24,21.43-2.48,2.23-5.62,2.63-8.84,2.62C424.73,994.85,418,994.86,411.32,994.86Z"/><path class="cls-6" d="M888.2,816.32h62.85a25.64,25.64,0,0,1,4.39.21c3.87.7,5.62,2.44,5.6,6.35q-.06,14.76-.65,29.52a28.84,28.84,0,0,1-1.82,7.91,10.78,10.78,0,0,1-9.19,7.55c-8.22,1.19-16.29-.21-24.33-1.64-2.6-.46-3.49-2.34-3.83-5-.57-4.56-4.35-6.48-8.58-4.81a3.24,3.24,0,0,0-2.23,2.76,33.84,33.84,0,0,0-.13,3.77c0,27.86.06,55.73-.06,83.59,0,4.56.79,7.76,5.56,9.9,5.82,2.61,7.66,8,6.75,14.22-.49,3.31-1.39,6.55-1.93,9.85a22.71,22.71,0,0,0,.15,10c.71,2.5-.7,3.56-2.72,4a20.51,20.51,0,0,1-4.37.26q-27,.07-54.06.11c-5.65,0-7-.92-8.17-6.3a38.65,38.65,0,0,1-.59-8.74c.15-6.28.72-12.53.09-18.83-.42-4.21.44-4.84,4.89-5.47,5.54-.77,6.21-1.37,6.25-7.19.1-13,.06-26,0-39,0-15.71-.13-31.42-.17-47.13,0-5.28-1.14-6.4-6.09-6.18-2.72.13-4.13,1.21-4.55,4.06-.89,6-1,6.14-6.88,6.34-6.7.23-13.39,1-20.1.51-8-.59-11.1-3.18-11.86-11a215.07,215.07,0,0,1-.25-31.4c.24-4.87,2.07-6.47,6.89-7.5a44.77,44.77,0,0,1,9.39-.62H888.2Z"/><path class="cls-8" d="M427,500.07c0-17.6-.3-35.21.09-52.81.4-18.62,11.47-34.46,28-40.26,17-5.93,32.73-2.56,46.78,8.15,8.68,6.61,12.08,16.33,13.28,26.86,1.46,12.74,1,25.54,1,38.32,0,22-.11,44-.15,66a75.44,75.44,0,0,1-1.33,15c-3.6,17.62-15,28.75-33,31.74A59.22,59.22,0,0,1,455,591.68c-16.68-5-26.86-18.1-27.84-36.28-.41-7.53-.37-15.09-.41-22.63-.07-10.9,0-21.8,0-32.7Z"/><path class="cls-8" d="M531.54,500.57q0-23.58,0-47.15a64.13,64.13,0,0,1,2.27-18.63c6.62-22.25,27.24-34.59,49.85-29.42,17.46,4,31.45,12.72,33.86,37.27.57,5.84,1.32,11.65-.14,17.47-2,8-7.51,12-15.67,11.12-1-.11-2.06-.39-3.08-.6-7.77-1.62-7.9-1.91-8-9.9-.06-5.85.42-11.74-.85-17.54-1.69-7.78-6.22-11.58-14-11.71-8-.13-13.23,3.87-14.66,11.72a57.59,57.59,0,0,0-.61,10q-.06,47.79,0,95.56c0,1.47,0,2.94.13,4.4,1,11.55,10.07,17.45,21,13.61a12,12,0,0,0,8-9c1.79-7.43,1.6-15,.79-22.48-.94-8.75,1.17-11.61,9.76-12.31a43,43,0,0,1,11.28.11c4.25.79,7,3,6.92,6.91-.32,11.25,1,22.62-2.28,33.7-10.39,34.74-48.85,40-72.21,19.69-9.19-8-11.87-19.08-12.08-30.66-.32-17.39-.08-34.79-.08-52.18Z"/><path class="cls-8" d="M400.89,458.93c-2.72,0-5.47.21-8.17,0-5.63-.54-7.4-2.57-6.93-8.17.31-3.6.42-7-1.17-10.43-3-6.5-8.63-9.68-15.78-8.68s-11.15,5.06-12.27,12.27a32.56,32.56,0,0,0,4.59,22.87,65.8,65.8,0,0,0,11.38,13.36c7.22,6.7,14.62,13.22,21.56,20.19,11.62,11.66,18.9,25.48,19.74,42.25a68.6,68.6,0,0,1-2.47,22.37c-5.21,18.26-21,29.76-40.45,29.62-21.87-.17-39.1-13.94-43.89-35.14a45,45,0,0,1-.27-16.25c.46-3.28,1.93-5.28,5.7-5.25a110.23,110.23,0,0,0,14.39-.91c4.75-.59,6.77,1.26,7.95,6.07.77,3.11.42,6.26.31,9.39-.43,13.33,10.08,17.12,20.61,14.12,5.42-1.55,7.74-6.12,8.6-11.39,2-12.14-1.08-22.89-9.4-32-4-4.32-8.32-8.26-12.53-12.35-5.56-5.4-11.25-10.68-16.71-16.18-16.77-16.9-22-37.07-16.44-60.05,3.86-16.06,16-26.7,33.94-29.12,24-3.23,42.65,9,49.34,28.72a37.53,37.53,0,0,1,1.27,19.8c-.69,3.42-2.33,5.2-6,4.92C405.51,458.79,403.2,458.93,400.89,458.93Z"/><path class="cls-8" d="M683.46,499.58q0-40.87,0-81.74c0-8.37,1.88-10.4,10.39-10.19,19.7.49,39.39.94,59.08-.1a18.16,18.16,0,0,1,3.76.16c4.5.76,6.13,2.68,6,7.31-.12,3.33-.6,6.58-.16,10,.89,6.81-2.09,10.1-9,9.46-10.9-1-21.79-.08-32.68-.43-.62,0-1.25-.1-1.88-.06-4.79.27-6.32,1.73-6.41,6.56-.08,4,.16,8,.15,11.94,0,7.76-.14,15.51-.18,23.26,0,7.28,1,8.25,8.45,8.22,7.75,0,15.5-.13,23.25-.15,6.85,0,8.2,1.35,7.74,8.16a98.91,98.91,0,0,0-.05,10c.24,6.72-1.64,8.71-8.48,8.42-5-.22-10-1-15-1.5a33.11,33.11,0,0,0-5.63-.1c-7.36.59-10.44,3.63-11.17,11a28.83,28.83,0,0,0,0,5.65c.86,9.19.94,18.4,1.21,27.62.24,8.53,3,11.29,11.48,11.56,9,.29,18,.83,27,0,7.57-.71,10.23,1.65,11.3,9.22a31.51,31.51,0,0,1-.06,9.4c-.95,6.2-2.86,7.93-9,8.29-1,.06-2.1.05-3.14,0-18.86-.81-37.72-.5-56.58-.15a27.82,27.82,0,0,1-4.38-.17c-3.92-.57-5.53-2.13-5.74-6.16-.24-4.6-.11-9.21-.11-13.83q0-35.84,0-71.67Z"/><path class="cls-8" d="M866.77,408.62c7.82-.36,14.62-1.44,21.56-.35,4.81.75,8.23,3.16,10.12,7.45a101.46,101.46,0,0,1,4.23,11.79c4.23,14,8.33,28.05,12.46,42.08.41,1.37.32,3,2.23,3.83q7.13-24,14.25-47.92c.9-3,1.91-6,3-8.92,2.17-6,6.61-8.87,12.94-9,5.47-.13,10.83.8,16.79,1.3-2.6,8.17-5.05,16.08-7.63,23.95-6,18.27-12,36.55-18.44,54.66-6.42,17.9-9.53,36.29-8.23,55.46.86,12.72-.47,25.51.35,38.28.42,6.4-2.36,9-8.71,10.1a38.91,38.91,0,0,1-13.74-.08c-4-.74-6.4-3-6.92-7a25.16,25.16,0,0,1-.25-5.61c4.25-43.39-2.4-85.09-19.26-125.22C875.48,439.09,871.59,424.14,866.77,408.62Z"/><path class="cls-8" d="M830.66,513.92q0,33.32,0,66.62a35,35,0,0,1-.38,5.61c-.5,3.05-2.37,4.74-5.5,5.1a72.07,72.07,0,0,1-16.93-.28c-3.71-.46-5.34-2.33-5.81-6.31a90.71,90.71,0,0,1-.56-10c-.12-28.07-.27-56.14-.23-84.22,0-13.4.41-26.8.64-40.2,0-.84,0-1.68,0-2.52-.07-11.68-3.72-14.93-15.44-13.67-2.7.29-5.36,1-8.11.57-3.67-.59-6.07-2.44-7-6.24-1.22-5.31-.32-10.43,1.19-15.46.93-3.13,3.55-4.63,6.61-5.09a33.62,33.62,0,0,1,6.88-.27c21.15,1.2,42.29.66,63.45.15,10-.24,11.89,1.86,11.11,11.73-.22,2.71-.32,5.44-.69,8.14-.64,4.65-2.24,6.22-6.92,6.43-3.76.17-7.54-.11-11.31-.14-8.8-.06-11.76,2.76-11.66,11.62.08,7.74.66,15.48.72,23.22.12,15.08,0,30.16,0,45.24Z"/><path class="cls-8" d="M633.57,498.57v-78c0-1.89-.1-3.78.06-5.66.38-4.61,1.93-6.56,6.44-7.08a57.41,57.41,0,0,1,16.29.38c3.68.62,5.56,2.8,5.92,6.29.29,2.91.31,5.86.32,8.79q0,61.65,0,123.28c0,10.48.32,21,.49,31.44,0,.83.14,1.67.11,2.51-.32,8.43-2.67,10.72-11.06,10.83-2.72,0-5.44.2-8.16.21-7.62,0-10.32-2.45-10.5-10-.11-4.61.15-9.22.15-13.83q0-34.59,0-69.18Z"/><path class="cls-6" d="M458.61,284.58h32.07a44.27,44.27,0,0,1,5.65.19c4,.53,5.45,2,5.95,6.05a33.64,33.64,0,0,1,0,5c-.35,11.74-.52,23.47,0,35.21.05,1.25.1,2.51.05,3.77-.28,6.79-2.91,9.55-9.67,9.64-8.81.11-17.61,0-26.42,0-13.42,0-26.84.06-40.26.08-8.06,0-10.33-2.08-9.93-10,.66-13.21.38-26.4.06-39.59-.23-9.37.77-10.33,10.37-10.34Z"/><path class="cls-6" d="M459.83,80.3c11.3,0,22.61,0,33.91,0,7,0,8.7,1.59,8.61,8.41-.17,13.6-.35,27.19,0,40.79.18,7.41-2.31,9.56-9.89,9.56q-33,0-65.94,0a32.11,32.11,0,0,1-4.39-.12c-3.81-.54-5.5-2.25-6-6.09a24.75,24.75,0,0,1,0-4.39q.65-17.58.08-35.15c0-1.25,0-2.51,0-3.77.1-7.69,1.59-9.24,9.13-9.27C436.8,80.28,448.31,80.3,459.83,80.3Z"/><path class="cls-6" d="M455.43,237.67c-10.47,0-20.95,0-31.42,0-6.35,0-7.79-1.37-7.83-7.73q-.15-21.66,0-43.33c.05-6.08,1.9-7.65,8.12-7.63q30.79.1,61.57.24c1.26,0,2.52-.06,3.77.05,4.25.4,5.59,1.59,5.74,5.87.18,5.23,0,10.47,0,15.7.05,9.21.14,18.42.22,27.63,0,1.05.11,2.1,0,3.14-.4,4.5-1.72,5.95-6.29,6-8.79.15-17.59.06-26.38.06Z"/><path class="cls-9" d="M455.66,499.18q0-23.58,0-47.15c0-1.87,0-3.74.12-5.6v-.1c-1.06-13,11.95-19.3,24.24-12.95a12.62,12.62,0,0,1,6.16,8.33,37,37,0,0,1,1.12,9.33q0,48.73,0,97.45c0,1,0,2.1,0,3.14-.85,12.67-9.39,18.77-21.63,15.39-5.41-1.49-8.43-5.32-9.43-10.66a46,46,0,0,1-.51-8.14Q455.62,523.69,455.66,499.18Z"/></g></svg>